<svg xmlns="http://www.w3.org/2000/svg" viewBox="0 0 760 620" width="760" height="620" font-family="'Segoe UI', Arial, sans-serif" role="img" aria-label="The Four-Layer Architecture">
  <title>Architecture Layers</title>
  <desc>Rendered export of examples/diagrams/architecture-layers.mmd — the four-layer model: Knowledge, Governance, Generation, Execution.</desc>
  <rect width="760" height="620" fill="#ffffff"/>

  <!-- Layer 1: Knowledge -->
  <g>
    <rect x="30" y="20" width="700" height="120" rx="12" fill="#dbeafe" stroke="#3b82f6" stroke-width="2"/>
    <text x="50" y="46" font-size="17" font-weight="700" fill="#1e3a5f">Layer 1: Knowledge Layer</text>
    <g fill="#ffffff" stroke="#3b82f6" stroke-width="1.5">
      <rect x="50"  y="60" width="120" height="60" rx="8"/>
      <rect x="182" y="60" width="120" height="60" rx="8"/>
      <rect x="314" y="60" width="120" height="60" rx="8"/>
      <rect x="446" y="60" width="120" height="60" rx="8"/>
      <rect x="578" y="60" width="132" height="60" rx="8"/>
    </g>
    <g font-size="12.5" fill="#1e3a5f" text-anchor="middle">
      <text x="110" y="86">Organizational</text><text x="110" y="102">Principles</text>
      <text x="242" y="94">Business Rules</text>
      <text x="374" y="86">Process</text><text x="374" y="102">Documentation</text>
      <text x="506" y="86">Domain</text><text x="506" y="102">Knowledge</text>
      <text x="644" y="94">Agent Context</text>
    </g>
  </g>
  <path d="M380 140 L380 168" stroke="#64748b" stroke-width="2" marker-end="url(#arrow)"/>

  <!-- Layer 2: Governance -->
  <g>
    <rect x="30" y="170" width="700" height="120" rx="12" fill="#fef9c3" stroke="#ca8a04" stroke-width="2"/>
    <text x="50" y="196" font-size="17" font-weight="700" fill="#422006">Layer 2: Agent Governance Layer</text>
    <g fill="#ffffff" stroke="#ca8a04" stroke-width="1.5">
      <rect x="50"  y="210" width="120" height="60" rx="8"/>
      <rect x="182" y="210" width="120" height="60" rx="8"/>
      <rect x="314" y="210" width="120" height="60" rx="8"/>
      <rect x="446" y="210" width="120" height="60" rx="8"/>
      <rect x="578" y="210" width="132" height="60" rx="8"/>
    </g>
    <g font-size="12.5" fill="#422006" text-anchor="middle">
      <text x="110" y="244">Agent Registry</text>
      <text x="242" y="236">Scope</text><text x="242" y="252">Definitions</text>
      <text x="374" y="236">Escalation</text><text x="374" y="252">Rules</text>
      <text x="506" y="236">Audit &amp;</text><text x="506" y="252">Review</text>
      <text x="644" y="244">Human Override</text>
    </g>
  </g>
  <path d="M380 290 L380 318" stroke="#64748b" stroke-width="2" marker-end="url(#arrow)"/>

  <!-- Layer 3: Generation -->
  <g>
    <rect x="30" y="320" width="700" height="120" rx="12" fill="#dcfce7" stroke="#16a34a" stroke-width="2"/>
    <text x="50" y="346" font-size="17" font-weight="700" fill="#14532d">Layer 3: Generation Layer</text>
    <g fill="#ffffff" stroke="#16a34a" stroke-width="1.5">
      <rect x="80"  y="360" width="140" height="60" rx="8"/>
      <rect x="240" y="360" width="140" height="60" rx="8"/>
      <rect x="400" y="360" width="140" height="60" rx="8"/>
      <rect x="560" y="360" width="140" height="60" rx="8"/>
    </g>
    <g font-size="12.5" fill="#14532d" text-anchor="middle">
      <text x="150" y="394">AI Model</text>
      <text x="310" y="386">Prompt</text><text x="310" y="402">Architecture</text>
      <text x="470" y="386">Output</text><text x="470" y="402">Evaluation</text>
      <text x="630" y="394">Feedback Loop</text>
    </g>
  </g>
  <path d="M380 440 L380 468" stroke="#64748b" stroke-width="2" marker-end="url(#arrow)"/>

  <!-- Layer 4: Execution -->
  <g>
    <rect x="30" y="470" width="700" height="120" rx="12" fill="#fce7f3" stroke="#db2777" stroke-width="2"/>
    <text x="50" y="496" font-size="17" font-weight="700" fill="#500724">Layer 4: Execution Layer</text>
    <g fill="#ffffff" stroke="#db2777" stroke-width="1.5">
      <rect x="50"  y="510" width="120" height="60" rx="8"/>
      <rect x="182" y="510" width="120" height="60" rx="8"/>
      <rect x="314" y="510" width="120" height="60" rx="8"/>
      <rect x="446" y="510" width="120" height="60" rx="8"/>
      <rect x="578" y="510" width="132" height="60" rx="8"/>
    </g>
    <g font-size="12.5" fill="#500724" text-anchor="middle">
      <text x="110" y="544">Microsoft 365</text>
      <text x="242" y="536">Teams /</text><text x="242" y="552">Outlook</text>
      <text x="374" y="536">SharePoint /</text><text x="374" y="552">Planner</text>
      <text x="506" y="536">Power</text><text x="506" y="552">Automate</text>
      <text x="644" y="536">External</text><text x="644" y="552">Systems</text>
    </g>
  </g>

  <defs>
    <marker id="arrow" markerWidth="10" markerHeight="10" refX="8" refY="3" orient="auto" markerUnits="strokeWidth">
      <path d="M0,0 L8,3 L0,6 Z" fill="#64748b"/>
    </marker>
  </defs>
</svg>
